<svg width="66" height="66" viewBox="0 0 66 66" fill="none" xmlns="http://www.w3.org/2000/svg">
<path d="M32.75 0.25C14.8317 0.25 0.25 14.8317 0.25 32.75C0.25 50.6683 14.8317 65.25 32.75 65.25C50.6683 65.25 65.25 50.6683 65.25 32.75C65.25 14.8317 50.6683 0.25 32.75 0.25ZM32.75 5.66667C47.7406 5.66667 59.8333 17.7594 59.8333 32.75C59.8399 39.2336 57.515 45.5035 53.2828 50.4154C49.0506 55.3272 43.1934 58.5536 36.78 59.5056V40.6475H44.4933L45.704 32.8123H36.78V28.5331C36.78 25.2831 37.8498 22.3933 40.8913 22.3933H45.7798V15.5575C44.9213 15.441 43.104 15.1892 39.6698 15.1892C32.4981 15.1892 28.2948 18.9754 28.2948 27.6042V32.8123H20.9227V40.6475H28.2948V59.4379C21.9702 58.3969 16.2217 55.1411 12.0765 50.2522C7.93123 45.3633 5.65932 39.1597 5.66667 32.75C5.66667 17.7594 17.7594 5.66667 32.75 5.66667Z" fill="white"/>
</svg>
