<svg width="65" height="63" viewBox="0 0 65 63" fill="none" xmlns="http://www.w3.org/2000/svg">
<path fill-rule="evenodd" clip-rule="evenodd" d="M32.5 2.83021C16.101 2.83021 2.82479 16.0388 2.82479 32.305C2.82479 44.2488 9.98292 54.5269 20.2854 59.15C21.3633 59.6348 22.4169 59.4425 23.2402 58.825C23.6955 58.4704 24.0626 58.0152 24.3125 57.4951C24.5625 56.9749 24.6886 56.4039 24.681 55.8269V54.2831L21.0058 53.7848C20.9786 53.7811 20.9515 53.7766 20.9246 53.7713C18.8987 53.3758 17.531 52.6635 16.529 51.6371C15.6867 50.7731 15.1721 49.7385 14.736 48.861L14.5844 48.555C14.1814 47.7144 13.7413 46.892 13.2654 46.0904C12.8998 45.5108 12.6154 45.2129 12.3337 45.026C11.6187 44.5521 10.9308 43.7477 10.9308 42.7429C10.9284 42.4537 10.9903 42.1676 11.1121 41.9053C11.2339 41.643 11.4125 41.411 11.635 41.2263C12.0549 40.8938 12.5783 40.7193 13.1137 40.7333C13.715 40.7333 14.281 40.9175 14.7523 41.1288C15.2344 41.3454 15.7137 41.6325 16.1606 41.9304C17.2494 42.6563 18.3219 43.5148 19.2292 44.5738C20.1744 45.6733 20.8433 46.3721 21.8508 46.5156C22.6796 46.6348 23.5246 46.6375 24.1827 46.6077C24.2742 46.0866 24.425 45.5778 24.6323 45.091C23.8285 44.9035 23.0356 44.672 22.2571 44.3977C20.4858 43.7694 18.5115 42.7917 17.1844 41.3102C15.7273 39.6798 14.8254 38.2254 14.3217 36.5246C13.8315 34.8671 13.7502 33.0715 13.7502 30.8615C13.7502 27.476 15.2154 24.6242 16.315 23.1102C15.8925 21.7847 15.5889 20.4243 15.4077 19.045C15.2877 18.1752 15.2886 17.2929 15.4104 16.4233C15.5458 15.6298 15.8844 14.6548 16.7754 14.0671C17.634 13.4956 18.6415 13.52 19.4269 13.6663C20.2421 13.8206 21.0898 14.1592 21.8698 14.5465C23.14 15.1748 24.4021 16.0144 25.3473 16.7267C26.9777 16.2473 29.8621 15.6298 32.4702 15.5729H32.5298C35.1406 15.6298 37.895 16.2473 39.4848 16.724C40.4327 16.0144 41.6921 15.1721 42.9596 14.5465C43.7396 14.1592 44.5846 13.8206 45.4025 13.6663C46.1879 13.52 47.1954 13.4956 48.0567 14.0644C48.945 14.6548 49.2862 15.6298 49.419 16.4233C49.5571 17.2494 49.5246 18.1729 49.419 19.045C49.2386 20.4242 48.9358 21.7846 48.5144 23.1102C49.614 24.6269 51.0792 27.4788 51.0792 30.8615C51.0792 33.0715 50.9979 34.8671 50.5104 36.5219C50.004 38.2281 49.1021 39.6798 47.645 41.3102C46.3179 42.7917 44.3435 43.7694 42.5723 44.3977C41.6321 44.7282 40.6713 44.9969 39.696 45.2021C40.0292 46.2096 40.1483 47.0248 40.1483 47.4933V55.8621C40.1483 57.135 40.7415 58.221 41.5837 58.8548C42.4017 59.475 43.4525 59.6673 44.5304 59.196C54.9304 54.6135 62.1725 44.3083 62.1725 32.3023C62.1725 16.0388 48.9017 2.83021 32.5 2.83021ZM25.6642 49.3188C24.96 49.419 25.6615 49.3188 25.6615 49.3188H25.6533L25.6317 49.3242L25.5531 49.335C25.1509 49.3823 24.7471 49.4157 24.3425 49.4352C23.5787 49.4704 22.5306 49.4731 21.4554 49.3188C19.3131 49.0154 18.0104 47.4988 17.1681 46.5129L17.0869 46.4208C16.8115 46.1014 16.5157 45.8001 16.2012 45.519C16.4802 46.0335 16.77 46.6077 17.0815 47.2252L17.1085 47.2794L17.2467 47.561C17.7206 48.5035 18.0321 49.1319 18.5494 49.6573C19.0531 50.1719 19.8385 50.6702 21.4256 50.9844L26.2844 51.6425C26.6237 51.6884 26.9349 51.856 27.16 52.114C27.3852 52.372 27.509 52.703 27.5085 53.0454V55.8269C27.5085 57.9935 26.4929 59.9246 24.9356 61.0946C24.118 61.7193 23.1454 62.109 22.1226 62.2217C21.0998 62.3343 20.0656 62.1656 19.1317 61.7338C7.85958 56.6773 0 45.4188 0 32.305C0 14.4517 14.5627 0 32.5 0C50.4373 0 65 14.4517 65 32.305C65 45.4865 57.0402 56.7748 45.6706 61.7879C44.7359 62.2116 43.7036 62.3731 42.6841 62.2553C41.6646 62.1374 40.6964 61.7447 39.8829 61.119C39.0786 60.4998 38.4287 59.7026 37.9842 58.7901C37.5396 57.8775 37.3126 56.8744 37.3208 55.8594V47.4906C37.3208 47.301 37.1881 46.2069 36.4487 44.7363C36.3467 44.5323 36.2953 44.3068 36.2989 44.0788C36.3024 43.8508 36.3609 43.627 36.4693 43.4264C36.5777 43.2258 36.7329 43.0543 36.9217 42.9263C37.1104 42.7984 37.3272 42.7178 37.5537 42.6915C38.4827 42.5885 40.0481 42.2879 41.6271 41.7273C43.2358 41.1585 44.6794 40.3785 45.5379 39.4198C46.8135 37.9952 47.45 36.901 47.7994 35.7175C48.1623 34.4906 48.2544 33.0633 48.2544 30.8615C48.2544 27.7713 46.6294 25.174 45.8819 24.3371C45.7122 24.148 45.5965 23.9167 45.547 23.6674C45.4974 23.4182 45.5158 23.1603 45.6002 22.9206C45.9794 21.8535 46.4398 20.1933 46.6158 18.7119C46.7025 17.9671 46.7079 17.3442 46.6321 16.8946C46.6151 16.7302 46.5654 16.5709 46.4858 16.426C46.2994 16.3938 46.1082 16.4021 45.9252 16.4504C45.4648 16.5371 44.8771 16.7538 44.2108 17.0842C42.8837 17.7396 41.5025 18.7092 40.6467 19.4025C40.4579 19.5556 40.2328 19.6573 39.9931 19.6976C39.7534 19.738 39.5074 19.7156 39.279 19.6327C37.0861 18.9154 34.8052 18.5026 32.5 18.4058C29.7727 18.4708 26.6256 19.2454 25.5504 19.6327C25.322 19.7156 25.0759 19.738 24.8363 19.6976C24.5966 19.6573 24.3714 19.5556 24.1827 19.4025C23.0759 18.5115 21.8818 17.7347 20.6185 17.0842C20.0761 16.7993 19.4989 16.5863 18.9015 16.4504C18.7194 16.4025 18.5291 16.3942 18.3435 16.426C18.2639 16.5709 18.2142 16.7302 18.1973 16.8946C18.1215 17.3442 18.1269 17.9671 18.2135 18.7119C18.3896 20.1933 18.8527 21.8535 19.2292 22.9206C19.3998 23.4081 19.2942 23.9498 18.9475 24.3371C18.2 25.174 16.575 27.7713 16.575 30.8615C16.575 33.0606 16.6671 34.4906 17.03 35.7175C17.3821 36.901 18.0158 37.9925 19.2888 39.4198C20.15 40.3785 21.5908 41.1585 23.2023 41.7273C24.5206 42.1938 25.8854 42.5171 27.2729 42.6915C27.5584 42.7221 27.8278 42.8389 28.0452 43.0264C28.2627 43.2139 28.4179 43.4631 28.4902 43.741C28.5625 44.0188 28.5486 44.3121 28.4501 44.5818C28.3517 44.8515 28.1735 45.0849 27.9392 45.2508C27.4923 45.5704 27.1971 46.1446 27.0319 46.8081C26.9466 47.1498 26.8958 47.4991 26.8802 47.8508V47.9023C26.8837 48.2457 26.7622 48.5786 26.5386 48.8392C26.3149 49.0998 26.0041 49.2702 25.6642 49.3188V49.3188Z" fill="white"/>
</svg>
