<svg width="66" height="66" viewBox="0 0 66 66" fill="none" xmlns="http://www.w3.org/2000/svg">
<path d="M32.7215 16.0467C23.4935 16.0467 16.0462 23.4941 16.0462 32.722C16.0462 41.95 23.4935 49.3974 32.7215 49.3974C41.9494 49.3974 49.3968 41.95 49.3968 32.722C49.3968 23.4941 41.9494 16.0467 32.7215 16.0467ZM32.7215 43.5598C26.7538 43.5598 21.8837 38.6897 21.8837 32.722C21.8837 26.7544 26.7538 21.8843 32.7215 21.8843C38.6892 21.8843 43.5592 26.7544 43.5592 32.722C43.5592 38.6897 38.6892 43.5598 32.7215 43.5598ZM50.0798 11.4775C47.9252 11.4775 46.1853 13.2174 46.1853 15.3719C46.1853 17.5264 47.9252 19.2663 50.0798 19.2663C52.2343 19.2663 53.9742 17.5346 53.9742 15.3719C53.9748 14.8603 53.8745 14.3536 53.6791 13.8808C53.4836 13.408 53.1967 12.9784 52.835 12.6167C52.4732 12.2549 52.0437 11.9681 51.5709 11.7726C51.0981 11.5771 50.5914 11.4768 50.0798 11.4775V11.4775ZM65.2266 32.722C65.2266 28.2341 65.2672 23.7868 65.0152 19.307C64.7632 14.1036 63.5761 9.48553 59.7711 5.68053C55.958 1.8674 51.3481 0.688504 46.1447 0.436463C41.6567 0.184423 37.2094 0.225075 32.7296 0.225075C28.2417 0.225075 23.7944 0.184423 19.3146 0.436463C14.1111 0.688504 9.4931 1.87553 5.6881 5.68053C1.87497 9.49366 0.696072 14.1036 0.444032 19.307C0.191991 23.7949 0.232643 28.2422 0.232643 32.722C0.232643 37.2019 0.191991 41.6573 0.444032 46.1371C0.696072 51.3405 1.8831 55.9586 5.6881 59.7636C9.50123 63.5767 14.1111 64.7556 19.3146 65.0076C23.8025 65.2597 28.2498 65.219 32.7296 65.219C37.2176 65.219 41.6649 65.2597 46.1447 65.0076C51.3481 64.7556 55.9661 63.5686 59.7711 59.7636C63.5843 55.9504 64.7632 51.3405 65.0152 46.1371C65.2754 41.6573 65.2266 37.21 65.2266 32.722V32.722ZM58.0719 51.8934C57.4784 53.3731 56.7629 54.4788 55.6165 55.6171C54.4702 56.7635 53.3726 57.4789 51.8928 58.0725C47.6163 59.7717 37.4615 59.3896 32.7215 59.3896C27.9815 59.3896 17.8186 59.7717 13.542 58.0806C12.0623 57.4871 10.9566 56.7716 9.81832 55.6252C8.67194 54.4788 7.95647 53.3813 7.36295 51.9015C5.67184 47.6168 6.05397 37.462 6.05397 32.722C6.05397 27.9821 5.67184 17.8191 7.36295 13.5426C7.95647 12.0629 8.67194 10.9571 9.81832 9.81888C10.9647 8.68063 12.0623 7.95703 13.542 7.36352C17.8186 5.6724 27.9815 6.05453 32.7215 6.05453C37.4615 6.05453 47.6244 5.6724 51.901 7.36352C53.3807 7.95703 54.4864 8.6725 55.6247 9.81888C56.771 10.9653 57.4865 12.0629 58.08 13.5426C59.7711 17.8191 59.389 27.9821 59.389 32.722C59.389 37.462 59.7711 47.6168 58.0719 51.8934Z" fill="white"/>
</svg>
