<svg width="65" height="65" viewBox="0 0 65 65" fill="none" xmlns="http://www.w3.org/2000/svg">
<path d="M59.7756 0H5.22438C2.34 0 0 2.34 0 5.22438V59.7756C0 62.66 2.34 65 5.22438 65H59.7756C62.66 65 65 62.66 65 59.7756V5.22438C65 2.34 62.66 0 59.7756 0V0ZM59.7756 59.8C23.3919 59.7919 5.2 59.7837 5.2 59.7756C5.20812 23.3919 5.21625 5.2 5.22438 5.2C41.6081 5.20812 59.8 5.21625 59.8 5.22438C59.7919 41.6081 59.7837 59.8 59.7756 59.8ZM9.63625 24.3669H19.2806V55.3881H9.63625V24.3669ZM14.4625 20.1256C17.5419 20.1256 20.0525 17.6231 20.0525 14.5356C20.0525 13.8015 19.9079 13.0746 19.627 12.3964C19.3461 11.7182 18.9343 11.102 18.4152 10.5829C17.8961 10.0638 17.2799 9.65206 16.6017 9.37114C15.9235 9.09021 15.1966 8.94563 14.4625 8.94563C13.7284 8.94563 13.0015 9.09021 12.3233 9.37114C11.6451 9.65206 11.0289 10.0638 10.5098 10.5829C9.99069 11.102 9.57894 11.7182 9.29801 12.3964C9.01709 13.0746 8.8725 13.8015 8.8725 14.5356C8.86437 17.6231 11.3669 20.1256 14.4625 20.1256ZM34.9619 40.04C34.9619 35.9937 35.7337 32.0775 40.7469 32.0775C45.6869 32.0775 45.76 36.7006 45.76 40.3V55.3881H55.3962V38.3744C55.3962 30.0219 53.5925 23.595 43.8344 23.595C39.1462 23.595 36.0019 26.1706 34.71 28.6081H34.58V24.3669H25.3256V55.3881H34.9619V40.04Z" fill="white"/>
</svg>
